HIERARCHY
ROOT pelvis
{
	OFFSET 0.000000 0.000000 0.000000
	CHANNELS 6 Xposition Yposition Zposition Xrotation Yrotation Zrotation
	JOINT l_hip
	{
		OFFSET 0.195211 -0.245059 -0.022011
		CHANNELS 3 Xrotation Yrotation Zrotation
		JOINT l_knee
		{
			OFFSET 0.083896 -0.996307 -0.018298
			CHANNELS 3 Xrotation Yrotation Zrotation
			JOINT l_ankle
			{
				OFFSET -0.031606 -1.048662 -0.119000
				CHANNELS 3 Xrotation Yrotation Zrotation
				JOINT l_foot
				{
					OFFSET 0.063841 -0.149483 0.312863
					CHANNELS 3 Xrotation Yrotation Zrotation
					End Site
					{
						OFFSET 0.000000 0.000000 0.000000
					}
				}
			}
		}
	}
	JOINT r_hip
	{
		OFFSET -0.188785 -0.243354 -0.013119
		CHANNELS 3 Xrotation Yrotation Zrotation
		JOINT r_knee
		{
			OFFSET -0.098896 -1.013926 -0.025127
			CHANNELS 3 Xrotation Yrotation Zrotation
			JOINT r_ankle
			{
				OFFSET 0.038376 -1.049454 -0.114596
				CHANNELS 3 Xrotation Yrotation Zrotation
				JOINT r_foot
				{
					OFFSET -0.060300 -0.126955 0.322518
					CHANNELS 3 Xrotation Yrotation Zrotation
					End Site
					{
						OFFSET 0.000000 0.000000 0.000000
					}
				}
			}
		}
	}
	JOINT spine1
	{
		OFFSET -0.006861 0.282462 -0.060688
		CHANNELS 3 Xrotation Yrotation Zrotation
		JOINT spine2
		{
			OFFSET 0.009796 0.349212 -0.004686
			CHANNELS 3 Xrotation Yrotation Zrotation
			JOINT spine3
			{
				OFFSET 0.005545 0.134239 0.076232
				CHANNELS 3 Xrotation Yrotation Zrotation
				JOINT neck
				{
					OFFSET -0.005369 0.569656 -0.136135
					CHANNELS 3 Xrotation Yrotation Zrotation
					JOINT head
					{
						OFFSET 0.009621 0.170484 0.137338
						CHANNELS 3 Xrotation Yrotation Zrotation
						End Site
						{
							OFFSET 0.000000 0.000000 0.000000
						}
					}
				}
				JOINT l_collar
				{
					OFFSET 0.205981 0.322192 -0.100872
					CHANNELS 3 Xrotation Yrotation Zrotation
					JOINT l_shoulder
					{
						OFFSET 0.233388 0.086823 -0.019950
						CHANNELS 3 Xrotation Yrotation Zrotation
						JOINT l_elbow
						{
							OFFSET 0.687295 -0.032736 -0.075278
							CHANNELS 3 Xrotation Yrotation Zrotation
							JOINT l_wrist
							{
								OFFSET 0.651109 0.024639 0.000120
								CHANNELS 3 Xrotation Yrotation Zrotation
								JOINT l_hand
								{
									OFFSET 0.217934 -0.026487 -0.036124
									CHANNELS 3 Xrotation Yrotation Zrotation
									End Site
									{
										OFFSET 0.000000 0.000000 0.000000
									}
								}
							}
						}
					}
				}
				JOINT r_collar
				{
					OFFSET -0.210726 0.316244 -0.114374
					CHANNELS 3 Xrotation Yrotation Zrotation
					JOINT r_shoulder
					{
						OFFSET -0.244017 0.089684 -0.026814
						CHANNELS 3 Xrotation Yrotation Zrotation
						JOINT r_elbow
						{
							OFFSET -0.672913 -0.035979 -0.055153
							CHANNELS 3 Xrotation Yrotation Zrotation
							JOINT r_wrist
							{
								OFFSET -0.670689 0.023586 -0.009661
								CHANNELS 3 Xrotation Yrotation Zrotation
								JOINT r_hand
								{
									OFFSET -0.219937 -0.019827 -0.028502
									CHANNELS 3 Xrotation Yrotation Zrotation
									End Site
									{
										OFFSET 0.000000 0.000000 0.000000
									}
								}
							}
						}
					}
				}
			}
		}
	}
}
MOTION
Frames: 13
Frame Time: 0.016667
0.000000 0.000000 0.000000 0.000000 0.000000 0.000000 -2.247278 10.347400 18.256967 58.182761 -9.920437 -6.968263 0.000000 0.000000 0.000000 0.000000 0.000000 0.000000 -5.109333 -6.924351 -31.517016 50.014591 4.956682 9.701953 0.000000 0.000000 0.000000 0.000000 0.000000 0.000000 21.358346 0.748083 2.992409 11.493931 2.455768 -3.191629 -12.021337 -0.154672 -1.286144 0.719291 5.364660 -0.603290 -5.392955 3.817434 -18.556153 -14.899532 -26.435000 -38.696023 5.797344 -29.178005 12.938175 -12.534676 -36.406991 -4.108343 0.000000 0.000000 0.000000 0.000000 0.000000 0.000000 -21.061133 37.428015 41.133512 -27.760673 37.436509 -10.270565 -127.098819 -39.089105 -3.585411 0.000000 0.000000 0.000000 0.000000 0.000000 0.000000 
0.000000 0.000000 0.000000 0.000000 0.000000 0.000000 -2.196752 10.317335 18.355324 58.161417 -9.899611 -7.024589 0.000000 0.000000 0.000000 0.000000 0.000000 0.000000 -5.070537 -6.968915 -31.366982 49.987847 4.977758 9.639322 0.000000 0.000000 0.000000 0.000000 0.000000 0.000000 21.240985 0.738765 2.973447 11.858943 2.360862 -3.070101 -12.078278 -0.017127 -1.195317 0.658702 5.349512 -0.778251 -5.525745 3.761700 -18.494978 -15.133440 -26.752415 -39.023710 5.773523 -28.801744 13.112890 -12.311045 -36.437980 -3.878387 0.000000 0.000000 0.000000 0.000000 0.000000 0.000000 -21.433380 37.910204 41.876301 -28.674444 37.581341 -11.096949 -127.529179 -39.640363 -5.135850 0.000000 0.000000 0.000000 0.000000 0.000000 0.000000 
0.000000 0.000000 0.000000 0.000000 0.000000 0.000000 -2.196865 10.315244 18.357821 58.156374 -9.892321 -7.029801 0.000000 0.000000 0.000000 0.000000 0.000000 0.000000 -5.077829 -6.967144 -31.358600 49.987989 4.975420 9.635561 0.000000 0.000000 0.000000 0.000000 0.000000 0.000000 21.236763 0.739966 2.975933 11.876769 2.355260 -3.060772 -12.084395 -0.002247 -1.188316 0.653279 5.346141 -0.795897 -5.519442 3.754419 -18.491402 -15.153393 -26.782405 -39.050864 5.782919 -28.760441 13.124465 -12.263088 -36.443358 -3.846060 0.000000 0.000000 0.000000 0.000000 0.000000 0.000000 -21.469873 37.952563 41.943439 -28.756514 37.588008 -11.167329 -127.576069 -39.687031 -5.279484 0.000000 0.000000 0.000000 0.000000 0.000000 0.000000 
0.000000 0.000000 0.000000 0.000000 0.000000 0.000000 -2.196089 10.314934 18.358928 58.158725 -9.891220 -7.030569 0.000000 0.000000 0.000000 0.000000 0.000000 0.000000 -5.078199 -6.967470 -31.358690 49.990112 4.974619 9.635327 0.000000 0.000000 0.000000 0.000000 0.000000 0.000000 21.243107 0.740036 2.977668 11.883389 2.354907 -3.060313 -12.080205 0.000763 -1.188072 0.654794 5.345660 -0.794984 -5.511984 3.751978 -18.491192 -15.155914 -26.785600 -39.056245 5.781580 -28.756355 13.124525 -12.253760 -36.441674 -3.836699 0.000000 0.000000 0.000000 0.000000 0.000000 0.000000 -21.475388 37.959463 41.953520 -28.765427 37.592138 -11.174805 -127.569375 -39.692801 -5.294060 0.000000 0.000000 0.000000 0.000000 0.000000 0.000000 
0.000000 0.000000 0.000000 0.000000 0.000000 0.000000 -2.197322 10.313715 18.359406 58.161037 -9.890281 -7.031226 0.000000 0.000000 0.000000 0.000000 0.000000 0.000000 -5.079237 -6.967994 -31.358457 49.991802 4.973470 9.635882 0.000000 0.000000 0.000000 0.000000 0.000000 0.000000 21.247733 0.740648 2.978477 11.886918 2.354943 -3.060070 -12.077205 0.002956 -1.188064 0.656175 5.345195 -0.793944 -5.505854 3.750096 -18.490475 -15.158347 -26.787061 -39.059350 5.780715 -28.753844 13.127158 -12.249494 -36.439709 -3.832015 0.000000 0.000000 0.000000 0.000000 0.000000 0.000000 -21.478534 37.963471 41.959791 -28.768862 37.595036 -11.180317 -127.563909 -39.695752 -5.302710 0.000000 0.000000 0.000000 0.000000 0.000000 0.000000 
0.000000 0.000000 0.000000 0.000000 0.000000 0.000000 -2.199248 10.312168 18.359601 58.162055 -9.889378 -7.031725 0.000000 0.000000 0.000000 0.000000 0.000000 0.000000 -5.079692 -6.968994 -31.358489 49.993531 4.972429 9.636368 0.000000 0.000000 0.000000 0.000000 0.000000 0.000000 21.252829 0.741937 2.980340 11.889470 2.355815 -3.059334 -12.074820 0.005854 -1.187484 0.657544 5.344295 -0.792451 -5.499489 3.747593 -18.489535 -15.161637 -26.788406 -39.061572 5.780063 -28.752208 13.130706 -12.244869 -36.437818 -3.826925 0.000000 0.000000 0.000000 0.000000 0.000000 0.000000 -21.482268 37.968097 41.965527 -28.772057 37.598788 -11.185808 -127.559755 -39.699056 -5.312682 0.000000 0.000000 0.000000 0.000000 0.000000 0.000000 
0.000000 0.000000 0.000000 0.000000 0.000000 0.000000 -2.200535 10.310904 18.359810 58.162760 -9.888021 -7.032331 0.000000 0.000000 0.000000 0.000000 0.000000 0.000000 -5.080004 -6.968986 -31.357376 49.994750 4.971949 9.636057 0.000000 0.000000 0.000000 0.000000 0.000000 0.000000 21.256422 0.742083 2.981557 11.889983 2.355637 -3.059262 -12.074058 0.007955 -1.187776 0.657972 5.343759 -0.791379 -5.492930 3.744590 -18.489104 -15.165120 -26.789478 -39.063288 5.779769 -28.750309 13.135245 -12.238933 -36.435994 -3.821199 0.000000 0.000000 0.000000 0.000000 0.000000 0.000000 -21.486372 37.972336 41.970451 -28.775837 37.603475 -11.192877 -127.557528 -39.702628 -5.326420 0.000000 0.000000 0.000000 0.000000 0.000000 0.000000 
0.000000 0.000000 0.000000 0.000000 0.000000 0.000000 -2.202179 10.309012 18.360726 58.164734 -9.885996 -7.032603 0.000000 0.000000 0.000000 0.000000 0.000000 0.000000 -5.080287 -6.969117 -31.356268 49.997819 4.971228 9.635060 0.000000 0.000000 0.000000 0.000000 0.000000 0.000000 21.261224 0.741743 2.983256 11.889577 2.354904 -3.058747 -12.073609 0.010120 -1.187958 0.658796 5.343044 -0.790369 -5.483480 3.740035 -18.488877 -15.170383 -26.790318 -39.063980 5.778529 -28.747505 13.143181 -12.230437 -36.433405 -3.812718 0.000000 0.000000 0.000000 0.000000 0.000000 0.000000 -21.491404 37.977470 41.976426 -28.780608 37.609824 -11.203023 -127.552091 -39.707173 -5.344799 0.000000 0.000000 0.000000 0.000000 0.000000 0.000000 
0.000000 0.000000 0.000000 0.000000 0.000000 0.000000 -2.204527 10.307394 18.360976 58.166469 -9.884906 -7.033816 0.000000 0.000000 0.000000 0.000000 0.000000 0.000000 -5.081669 -6.969276 -31.355506 50.000552 4.969847 9.634785 0.000000 0.000000 0.000000 0.000000 0.000000 0.000000 21.264497 0.740710 2.984779 11.887657 2.353318 -3.057443 -12.073208 0.011220 -1.187834 0.659640 5.342807 -0.789668 -5.474531 3.735683 -18.488177 -15.174363 -26.790769 -39.064877 5.778329 -28.745481 13.149544 -12.222619 -36.430487 -3.807325 0.000000 0.000000 0.000000 0.000000 0.000000 0.000000 -21.494678 37.979562 41.982029 -28.784949 37.614087 -11.213034 -127.545892 -39.710526 -5.361694 0.000000 0.000000 0.000000 0.000000 0.000000 0.000000 
0.000000 0.000000 0.000000 0.000000 0.000000 0.000000 -2.211964 10.301467 18.365042 58.172147 -9.881875 -7.036237 0.000000 0.000000 0.000000 0.000000 0.000000 0.000000 -5.087209 -6.969135 -31.353827 50.008210 4.966036 9.634942 0.000000 0.000000 0.000000 0.000000 0.000000 0.000000 21.269631 0.739162 2.986595 11.879594 2.351312 -3.054696 -12.073542 0.014625 -1.187756 0.658182 5.339321 -0.788985 -5.451069 3.722796 -18.488267 -15.183618 -26.787690 -39.069251 5.778274 -28.739309 13.166224 -12.203939 -36.426892 -3.793768 0.000000 0.000000 0.000000 0.000000 0.000000 0.000000 -21.503483 37.982607 42.001566 -28.795026 37.624006 -11.240313 -127.532524 -39.720262 -5.404069 0.000000 0.000000 0.000000 0.000000 0.000000 0.000000 
0.000000 0.000000 0.000000 0.000000 0.000000 0.000000 -2.215325 10.298628 18.366678 58.173078 -9.880562 -7.037723 0.000000 0.000000 0.000000 0.000000 0.000000 0.000000 -5.088279 -6.969970 -31.350876 50.012602 4.964078 9.635293 0.000000 0.000000 0.000000 0.000000 0.000000 0.000000 21.273665 0.737005 2.986539 11.877255 2.348611 -3.053562 -12.073308 0.014768 -1.188214 0.659315 5.336394 -0.790658 -5.439787 3.715709 -18.489747 -15.189836 -26.783415 -39.066203 5.776427 -28.736329 13.177335 -12.196388 -36.425203 -3.785887 0.000000 0.000000 0.000000 0.000000 0.000000 0.000000 -21.502196 37.980252 42.005478 -28.795768 37.623474 -11.253196 -127.523131 -39.719764 -5.420301 0.000000 0.000000 0.000000 0.000000 0.000000 0.000000 
0.000000 0.000000 0.000000 0.000000 0.000000 0.000000 -2.219329 10.295361 18.368271 58.174775 -9.878530 -7.039208 0.000000 0.000000 0.000000 0.000000 0.000000 0.000000 -5.090059 -6.969339 -31.350527 50.015493 4.962353 9.634829 0.000000 0.000000 0.000000 0.000000 0.000000 0.000000 21.273042 0.736504 2.985137 11.873470 2.347271 -3.053577 -12.073904 0.015899 -1.189667 0.658634 5.336009 -0.791466 -5.429986 3.710901 -18.491220 -15.192659 -26.782619 -39.068188 5.775802 -28.734805 13.182172 -12.189765 -36.423458 -3.781847 0.000000 0.000000 0.000000 0.000000 0.000000 0.000000 -21.505487 37.980512 42.013162 -28.798336 37.627228 -11.262104 -127.511264 -39.720096 -5.429704 0.000000 0.000000 0.000000 0.000000 0.000000 0.000000 
0.000000 0.000000 0.000000 0.000000 0.000000 0.000000 -2.223367 10.291869 18.370934 58.178215 -9.877443 -7.040001 0.000000 0.000000 0.000000 0.000000 0.000000 0.000000 -5.091079 -6.968739 -31.348866 50.019436 4.960602 9.634006 0.000000 0.000000 0.000000 0.000000 0.000000 0.000000 21.274606 0.736906 2.982684 11.871256 2.346153 -3.053317 -12.074069 0.017649 -1.190844 0.659634 5.336836 -0.792879 -5.418687 3.705202 -18.492387 -15.197560 -26.782091 -39.068811 5.775091 -28.733295 13.190003 -12.183756 -36.421949 -3.778293 0.000000 0.000000 0.000000 0.000000 0.000000 0.000000 -21.507382 37.979965 42.021563 -28.800828 37.628166 -11.272294 -127.499367 -39.719051 -5.440725 0.000000 0.000000 0.000000 0.000000 0.000000 0.000000 
